PathFileType	4	(X/Y/Z)	Patient4_TMGait_0pt5_01_left_19.trc.trc
DataRate	CameraRate	NumFrames	NumMarkers	Units	OrigDataRate	OrigDataStartFrame	OrigNumFrames
77.348066298342	77.348066298342	7	33	mm	77.348066298342	53	       141
Frame#	Time	L.ASIS			Sacral			L.Shoulder			Chest			R.Shoulder			Neck			R.ASIS			R.Thigh.Superior			R.Thigh.Lateral			R.Thigh.Inferior			R.Patella			L.Thigh.Superior			L.Thigh.Lateral			L.Thigh.Inferior			L.Patella			L.Shank.Superior			L.Shank.Lateral			L.Shank.Inferior			R.Shank.Superior			R.Shank.Lateral			R.Shank.Inferior			R.Heel			R.Midfoot.Superior			R.Midfoot.Lateral			R.Toe			L.Heel			L.Midfoot.Lateral			L.Midfoot.Superior			L.Toe			L.Elbow			L.Wrist			R.Elbow			R.Wrist			
		X1	Y1	Z1	X2	Y2	Z2	X3	Y3	Z3	X4	Y4	Z4	X5	Y5	Z5	X6	Y6	Z6	X7	Y7	Z7	X8	Y8	Z8	X9	Y9	Z9	X10	Y10	Z10	X11	Y11	Z11	X12	Y12	Z12	X13	Y13	Z13	X14	Y14	Z14	X15	Y15	Z15	X16	Y16	Z16	X17	Y17	Z17	X18	Y18	Z18	X19	Y19	Z19	X20	Y20	Z20	X21	Y21	Z21	X22	Y22	Z22	X23	Y23	Z23	X24	Y24	Z24	X25	Y25	Z25	X26	Y26	Z26	X27	Y27	Z27	X28	Y28	Z28	X29	Y29	Z29	X30	Y30	Z30	X31	Y31	Z31	X32	Y32	Z32	X33	Y33	Z33	

53	26.122285714286	864.141624383993	967.273419279266	284.263389423433	646.702781596308	1005.593307242344	440.853885470113	813.908750826009	1441.723169324547	271.212710957246	917.961271772280	1370.109318503986	430.969069017761	831.139694711694	1436.734306776064	607.435814833928	815.051824857810	1499.129159724567	423.333528037119	873.735059418863	943.635063983740	558.838722535257	949.977448467149	766.044950791715	530.976219504555	899.920178240402	645.619468567105	599.729659893320	990.537562262454	601.892066721433	523.697326510640	1001.375700549902	487.123208167308	544.228599169261	910.140553385476	751.915313227063	313.185579276797	817.824131290570	636.952475807685	259.570645908525	898.881305951627	558.744291510901	324.539774642948	896.914043440646	489.417751768878	337.869766416875	871.775445598358	417.688934506806	331.090340504000	784.287005145176	301.605984304964	280.667610345709	832.409117512547	193.302547748229	358.239787902523	922.313822586769	415.835163988895	548.732448719502	799.516311613269	381.019466328388	607.671464682945	779.951419594492	273.759730573476	557.724070083667	576.696600094699	225.122597163247	527.193179652131	739.697400051863	155.121942263484	569.579903523275	630.827802215465	163.798304444675	602.751444694572	796.191159563145	39.472034851479	602.072733410009	702.886679795037	37.852531093398	403.057050370412	778.277342150424	34.705866332301	323.029509248888	860.736299787921	95.933227127568	350.521290430338	989.975300924701	44.473559836540	325.861753572486	785.665116778224	1099.651402931646	122.211032051522	979.684098550897	925.748749492386	115.258798382626	767.927074095681	1092.083634213485	713.825344353863	840.388283675059	840.806251241890	697.337091700721	
54	26.135214285714	864.292901789697	967.607887358991	283.634102059321	646.216533379339	1006.312563909974	439.370949155719	815.205915512572	1442.240228328458	269.907848051184	918.034496526334	1370.592310388476	430.401458373698	830.164342936247	1437.411718471739	606.289275125393	815.275544118633	1499.708645731543	422.060344534678	872.937040921515	944.698207074401	558.344690434623	950.972617963809	769.103507345529	529.623873227242	903.475694842258	648.151550852283	598.800582581693	993.823136413612	605.538371637905	521.886964455658	1007.093091533637	491.249852822910	542.713437692699	907.964494290268	751.191609981389	312.948313497365	814.416949929306	637.114045289010	259.138196014122	894.480564769766	558.116635266574	324.171002753443	891.756368230835	488.948896430171	337.560441558112	866.489810778187	417.551917021780	330.750922398608	778.532712825334	301.763149905488	280.419922322402	826.327821106254	193.274041195174	357.977318852358	929.804322571143	418.453627744300	547.778839929667	808.337679549788	380.055513193277	606.990181225814	791.952450896373	272.190790949097	557.249059935094	590.297013812438	216.482123029979	527.131589127644	755.606334129409	152.672053417911	569.344699909434	646.731126777454	157.571999061993	602.819470388826	816.278369763108	39.656695494303	602.262711540787	696.356665382713	37.966758595695	402.964982516364	771.801038133865	34.730533135781	322.969968716257	854.339127443373	95.882421595552	350.396722688031	983.531001320287	44.220962662403	325.800977053816	790.790852886441	1100.335388509821	120.083875569778	989.946482785827	932.663952749741	114.084515896995	760.895905841035	1094.059314087063	712.183015955766	820.062753231342	838.802084169843	696.956761452206	
55	26.148142857143	864.490236640134	967.887974977261	283.147714913859	645.820613129360	1006.961617071962	438.068913257499	816.517739324481	1442.699555400641	268.705995805708	918.119168193189	1371.038054384059	429.931314345600	829.212823359617	1438.082144470875	605.242345291615	815.470123923650	1500.241778300369	420.885596045463	872.165405010455	945.685152476429	557.945133212883	951.682786339277	771.832920495777	528.465760402459	906.602365986429	650.497102617955	598.101298123542	996.439847114220	608.800414552236	520.202967378859	1012.052307301908	495.226573057128	541.419261484293	905.754116441486	750.463636156932	312.903356988700	811.012139951323	637.296182779306	258.768942222456	890.040732999743	557.498954774244	323.863850199331	886.549039955347	488.489448237901	337.282561653902	861.167984655471	417.424637036313	330.434994478654	772.742411018965	301.931508596516	280.204629460641	820.234522513381	193.255917769054	357.726924081912	936.877448851562	420.811826488508	547.122914943434	817.031798462806	378.290525399368	606.597831923473	804.437567480408	269.804588476993	557.097388783225	604.911990922174	206.023490238820	527.297801226329	772.611749546011	149.391889111083	569.546852848530	663.791052010118	149.968964613470	603.231900117521	837.956844089713	39.517410305274	603.042829655896	689.831877351404	38.082184809165	402.880281457924	765.327475875981	34.756106542466	322.920349942007	847.944385859462	95.834343259228	350.278854490246	977.090197725970	43.972676928371	325.748121488003	795.791171997704	1100.966667468758	118.241281712086	999.910337219589	939.699088000743	113.186720239682	753.772842423355	1096.264132078978	710.789489929627	800.817489680458	838.140843063942	696.495503148941	
56	26.161071428571	864.728220822484	968.098928316661	282.798314132533	645.508794674375	1007.504436288755	436.947841836680	817.809470370931	1443.059554931368	267.612180708024	918.204364397159	1371.417402430509	429.558358106600	828.287695337393	1438.722726056588	604.298768342862	815.639084704530	1500.698748371114	419.805994565232	871.426776973864	946.554711850908	557.639259633669	952.114647880323	774.172005570967	527.519488810129	909.263707194546	652.587883525607	597.643412064077	998.402180057418	611.611462985324	518.698467864050	1016.241720172710	498.987257212996	540.376111091817	903.540992844904	749.719842148946	312.980549471082	807.619108861397	637.480219992825	258.443387427569	885.584713851258	556.881736797048	323.585781331477	881.318729167141	488.029429158191	337.015590160552	855.830018511293	417.289761810842	330.130288734438	766.934684372440	302.099398242752	280.010088405733	814.136532672670	193.238998910172	357.486227066543	943.509359853430	422.885714199497	546.775557419233	825.591077709828	375.810678323628	606.504370956073	817.326885892370	266.750925545148	557.272073276301	620.527090226316	194.121801831530	527.701351107164	790.552502339591	145.511768407024	570.186267586012	681.900539880167	141.316586943519	603.987854724379	860.890496947898	39.195953235816	604.362938520519	683.316075355291	38.195264971066	402.801068518034	758.854992936691	34.780329596772	322.879392997802	841.548319933694	95.789258478351	350.168413141111	970.651090043350	43.736463253416	325.701460938572	800.666248572574	1101.504685008226	116.653372820723	1009.567235522997	946.811199833760	112.542182329296	746.546453853813	1098.674103580544	709.626505654756	782.757163078325	838.614325345329	696.002405573349	
57	26.174000000000	864.996116341644	968.226676552485	282.580396834101	645.269875315923	1007.917493686877	436.002686644341	819.047102859292	1443.286767213181	266.632031305145	918.280573102605	1371.706955881998	429.281873021708	827.394071424473	1439.314659402245	603.461405440818	815.788231155825	1501.054877761518	418.819069228430	870.724979008621	947.274345351111	557.428740622765	952.270061398788	776.075679780487	526.799013156299	911.412597051455	654.367473049199	597.431392462686	999.726768475940	613.924734348707	517.429733902405	1019.660286176712	502.480155753852	539.605166979567	901.355288242891	748.949718808483	313.122990332478	804.249570727320	637.648401482670	258.151401485034	881.137060083073	556.256623713922	323.319767088850	876.095543346157	487.559146448898	336.752249439660	850.497593765741	417.131183309134	329.835553249451	761.129713575335	302.257540398667	279.831990567822	808.042076332942	193.214410354299	357.257422162851	949.681516712960	424.668598554189	546.731458738710	834.017657615115	372.719097244671	606.711975039344	830.535349240873	263.201613345329	557.759679555686	637.105936000588	181.172511222832	528.351074027361	809.263076824492	141.283266584175	571.235619921296	700.949795347996	131.952922250371	605.069359659785	884.752701872192	38.874737887498	606.121842944185	676.811906418733	38.303075875969	402.724973122187	752.381862069309	34.801367306648	322.846165624681	835.147775388262	95.746951170289	350.067265899075	964.211727751309	43.517855779986	325.659794897700	805.423196156383	1101.916020662070	115.295641824426	1018.906929818460	953.953735898447	112.132193512333	739.240963426931	1101.261159919028	708.668943842894	765.945119593600	840.000088392968	695.524569410573	
58	26.186928571429	865.277773155715	968.257824513115	282.489336045765	645.089322140809	1008.190504622607	435.224526548389	820.202338835254	1443.358606769800	265.771209425378	918.341657539201	1371.889905387035	429.100661818714	826.540068898481	1439.843314656565	602.732228051516	815.925803955367	1501.292240555843	417.923820603188	870.060098894747	947.821728327510	557.317980788997	952.148903784558	777.517894285942	526.314937334970	912.998249028592	655.793831804633	597.463723987325	1000.434758482093	615.714418054952	516.453606763667	1022.318715888196	505.668390915490	539.119249280015	899.223102931750	748.144620645978	313.292050008368	800.917578358066	637.785737659475	257.892114038053	876.723318030635	555.616855991858	323.063635731969	870.912530846834	487.070105295380	336.496366949790	845.193776516136	416.935599958976	329.558602409144	755.348614785231	302.399494070086	279.672543365036	801.959914070751	193.173959410457	357.046367840174	955.381622630427	426.170100040536	546.970748758458	842.321872814436	369.130322798586	607.214686942264	843.975537747487	259.339256117198	558.530648529258	654.589821999902	167.573046650567	529.250260314078	828.577815482433	136.961242129892	572.641705855506	720.826226023593	122.210498116848	606.439293025236	909.236768048631	38.755444771983	608.179344747469	670.320406134288	38.403459603549	402.649613317560	745.906497920196	34.817951982255	322.820044373351	828.740408677971	95.706687249044	349.977988096922	957.770085052634	43.319621696453	325.622470173766	810.071343461999	1102.177135105478	114.151178096391	1027.915891584910	961.078380375585	111.944074426388	731.916045970332	1103.990581394531	707.887982654975	750.412651645602	842.075172416935	695.103016135899	
59	26.199857142857	865.552874584520	968.180594148223	282.521892602165	644.950993939319	1008.325581214804	434.602214279164	821.256374057869	1443.264556954726	265.035036511735	918.386046879624	1371.956064658553	429.013255323466	825.736681753504	1440.297836334268	602.112523350878	816.062332668081	1501.400570023457	417.121460868534	869.428520012151	948.185297919614	557.314078878506	951.752349506835	778.492552542168	526.075445289329	913.973646625226	656.840614011900	597.734503917832	1000.554066840129	616.975226286522	515.824525316944	1024.238525425634	508.529037889548	538.924112079930	897.164448722710	747.298372368946	313.468878173495	797.639487098770	637.880948207577	257.672454040374	872.369623068165	554.957463450053	322.827460093499	865.804884880594	486.555621302411	336.259517181966	839.942785486806	416.693368701469	329.313421048907	749.612835030917	302.521824540417	279.538749993299	795.898840015398	193.110503591762	356.861210407809	960.603402950735	427.413917631397	547.462138003516	850.518572115374	365.165082186474	607.997922402652	857.559373088351	255.346561898045	559.541009946666	672.898055664022	153.706234469340	530.391850358131	848.332829598829	132.786771973767	574.328052253237	741.412901562143	112.402477532074	608.040862052986	934.061968674437	39.038137234897	610.370965515605	663.840795807585	38.495227266806	402.573187499793	739.427654151480	34.829560571973	322.800633489698	822.324705020276	95.667314309280	349.903301884347	951.324099817342	43.141677099764	325.589268858396	814.617987569707	1102.275422531080	113.211664225194	1036.576452767933	968.136018160491	111.971448372111	724.662808310919	1106.818584082949	707.254996729275	736.170495403472	844.626705769762	694.769680441229	
